<mxfile host="app.diagrams.net" modified="2022-07-09T04:48:48.656Z" agent="5.0 (Windows NT 10.0; Win64; x64) AppleWebKit/537.36 (KHTML, like Gecko) Chrome/103.0.0.0 Safari/537.36" etag="iav8U6RNaq54wtcx7cZE" version="20.0.4" type="github">
  <diagram id="TPFXDdbGqGw6NDe-MRKb" name="Page-1">
    <mxGraphModel dx="1298" dy="2914" grid="1" gridSize="10" guides="1" tooltips="1" connect="1" arrows="1" fold="1" page="1" pageScale="1" pageWidth="850" pageHeight="1100" background="none" math="0" shadow="0">
      <root>
        <mxCell id="0" />
        <mxCell id="1" parent="0" />
        <mxCell id="S5PP0wBCEG6PRxJ2JpYk-3" value="" style="edgeStyle=orthogonalEdgeStyle;rounded=0;orthogonalLoop=1;jettySize=auto;html=1;" edge="1" parent="1" source="S5PP0wBCEG6PRxJ2JpYk-1" target="S5PP0wBCEG6PRxJ2JpYk-2">
          <mxGeometry relative="1" as="geometry" />
        </mxCell>
        <mxCell id="S5PP0wBCEG6PRxJ2JpYk-5" value="" style="edgeStyle=orthogonalEdgeStyle;rounded=0;orthogonalLoop=1;jettySize=auto;html=1;" edge="1" parent="1" source="S5PP0wBCEG6PRxJ2JpYk-1" target="S5PP0wBCEG6PRxJ2JpYk-4">
          <mxGeometry relative="1" as="geometry" />
        </mxCell>
        <mxCell id="S5PP0wBCEG6PRxJ2JpYk-11" value="" style="edgeStyle=orthogonalEdgeStyle;rounded=0;orthogonalLoop=1;jettySize=auto;html=1;" edge="1" parent="1" source="S5PP0wBCEG6PRxJ2JpYk-1" target="S5PP0wBCEG6PRxJ2JpYk-10">
          <mxGeometry relative="1" as="geometry" />
        </mxCell>
        <mxCell id="S5PP0wBCEG6PRxJ2JpYk-13" value="" style="edgeStyle=orthogonalEdgeStyle;rounded=0;orthogonalLoop=1;jettySize=auto;html=1;" edge="1" parent="1" source="S5PP0wBCEG6PRxJ2JpYk-1" target="S5PP0wBCEG6PRxJ2JpYk-12">
          <mxGeometry relative="1" as="geometry" />
        </mxCell>
        <mxCell id="S5PP0wBCEG6PRxJ2JpYk-16" value="" style="edgeStyle=orthogonalEdgeStyle;rounded=0;orthogonalLoop=1;jettySize=auto;html=1;" edge="1" parent="1" source="S5PP0wBCEG6PRxJ2JpYk-1" target="S5PP0wBCEG6PRxJ2JpYk-15">
          <mxGeometry relative="1" as="geometry">
            <Array as="points">
              <mxPoint x="466.91" y="-1960" />
              <mxPoint x="466.91" y="-1830" />
            </Array>
          </mxGeometry>
        </mxCell>
        <mxCell id="S5PP0wBCEG6PRxJ2JpYk-18" value="" style="edgeStyle=orthogonalEdgeStyle;rounded=0;orthogonalLoop=1;jettySize=auto;html=1;" edge="1" parent="1" source="S5PP0wBCEG6PRxJ2JpYk-1" target="S5PP0wBCEG6PRxJ2JpYk-17">
          <mxGeometry relative="1" as="geometry">
            <Array as="points">
              <mxPoint x="466.91" y="-1960" />
              <mxPoint x="466.91" y="-2080" />
            </Array>
          </mxGeometry>
        </mxCell>
        <mxCell id="S5PP0wBCEG6PRxJ2JpYk-20" value="" style="edgeStyle=orthogonalEdgeStyle;rounded=0;orthogonalLoop=1;jettySize=auto;html=1;" edge="1" parent="1" source="S5PP0wBCEG6PRxJ2JpYk-1" target="S5PP0wBCEG6PRxJ2JpYk-19">
          <mxGeometry relative="1" as="geometry">
            <Array as="points">
              <mxPoint x="280" y="-1960" />
              <mxPoint x="280" y="-1890" />
              <mxPoint x="60" y="-1890" />
              <mxPoint x="60" y="-1670" />
            </Array>
          </mxGeometry>
        </mxCell>
        <mxCell id="S5PP0wBCEG6PRxJ2JpYk-1" value="Student" style="rounded=0;whiteSpace=wrap;html=1;direction=west;" vertex="1" parent="1">
          <mxGeometry x="311.91" y="-1990" width="120" height="60" as="geometry" />
        </mxCell>
        <mxCell id="S5PP0wBCEG6PRxJ2JpYk-2" value="&lt;u&gt;Id&lt;/u&gt;" style="ellipse;whiteSpace=wrap;html=1;rounded=0;" vertex="1" parent="1">
          <mxGeometry x="106.91" y="-1990" width="120" height="60" as="geometry" />
        </mxCell>
        <mxCell id="S5PP0wBCEG6PRxJ2JpYk-7" value="" style="edgeStyle=orthogonalEdgeStyle;rounded=0;orthogonalLoop=1;jettySize=auto;html=1;" edge="1" parent="1" source="S5PP0wBCEG6PRxJ2JpYk-4" target="S5PP0wBCEG6PRxJ2JpYk-6">
          <mxGeometry relative="1" as="geometry" />
        </mxCell>
        <mxCell id="S5PP0wBCEG6PRxJ2JpYk-9" value="" style="edgeStyle=orthogonalEdgeStyle;rounded=0;orthogonalLoop=1;jettySize=auto;html=1;" edge="1" parent="1" source="S5PP0wBCEG6PRxJ2JpYk-4" target="S5PP0wBCEG6PRxJ2JpYk-8">
          <mxGeometry relative="1" as="geometry" />
        </mxCell>
        <mxCell id="S5PP0wBCEG6PRxJ2JpYk-4" value="Name" style="ellipse;whiteSpace=wrap;html=1;rounded=0;" vertex="1" parent="1">
          <mxGeometry x="314.41" y="-1860" width="115" height="60" as="geometry" />
        </mxCell>
        <mxCell id="S5PP0wBCEG6PRxJ2JpYk-6" value="First_Name" style="ellipse;whiteSpace=wrap;html=1;rounded=0;" vertex="1" parent="1">
          <mxGeometry x="119.41" y="-1860" width="120" height="60" as="geometry" />
        </mxCell>
        <mxCell id="S5PP0wBCEG6PRxJ2JpYk-8" value="Last_Name" style="ellipse;whiteSpace=wrap;html=1;rounded=0;" vertex="1" parent="1">
          <mxGeometry x="316.91" y="-1770" width="115" height="60" as="geometry" />
        </mxCell>
        <mxCell id="S5PP0wBCEG6PRxJ2JpYk-10" value="DOB" style="ellipse;whiteSpace=wrap;html=1;rounded=0;" vertex="1" parent="1">
          <mxGeometry x="311.91" y="-2100" width="120" height="60" as="geometry" />
        </mxCell>
        <mxCell id="S5PP0wBCEG6PRxJ2JpYk-12" value="Age" style="ellipse;whiteSpace=wrap;html=1;rounded=0;" vertex="1" parent="1">
          <mxGeometry x="511.91" y="-1990" width="120" height="60" as="geometry" />
        </mxCell>
        <mxCell id="S5PP0wBCEG6PRxJ2JpYk-15" value="Email" style="ellipse;whiteSpace=wrap;html=1;rounded=0;" vertex="1" parent="1">
          <mxGeometry x="511.91" y="-1860" width="120" height="60" as="geometry" />
        </mxCell>
        <mxCell id="S5PP0wBCEG6PRxJ2JpYk-17" value="Phone" style="ellipse;whiteSpace=wrap;html=1;rounded=0;" vertex="1" parent="1">
          <mxGeometry x="496.91" y="-2110" width="120" height="60" as="geometry" />
        </mxCell>
        <mxCell id="S5PP0wBCEG6PRxJ2JpYk-22" value="" style="edgeStyle=orthogonalEdgeStyle;rounded=0;orthogonalLoop=1;jettySize=auto;html=1;" edge="1" parent="1" source="S5PP0wBCEG6PRxJ2JpYk-19" target="S5PP0wBCEG6PRxJ2JpYk-21">
          <mxGeometry relative="1" as="geometry" />
        </mxCell>
        <mxCell id="S5PP0wBCEG6PRxJ2JpYk-24" value="" style="edgeStyle=orthogonalEdgeStyle;rounded=0;orthogonalLoop=1;jettySize=auto;html=1;" edge="1" parent="1" source="S5PP0wBCEG6PRxJ2JpYk-19" target="S5PP0wBCEG6PRxJ2JpYk-23">
          <mxGeometry relative="1" as="geometry" />
        </mxCell>
        <mxCell id="S5PP0wBCEG6PRxJ2JpYk-26" value="" style="edgeStyle=orthogonalEdgeStyle;rounded=0;orthogonalLoop=1;jettySize=auto;html=1;" edge="1" parent="1" source="S5PP0wBCEG6PRxJ2JpYk-19" target="S5PP0wBCEG6PRxJ2JpYk-23">
          <mxGeometry relative="1" as="geometry" />
        </mxCell>
        <mxCell id="S5PP0wBCEG6PRxJ2JpYk-28" value="" style="edgeStyle=orthogonalEdgeStyle;rounded=0;orthogonalLoop=1;jettySize=auto;html=1;" edge="1" parent="1" source="S5PP0wBCEG6PRxJ2JpYk-19" target="S5PP0wBCEG6PRxJ2JpYk-27">
          <mxGeometry relative="1" as="geometry">
            <Array as="points">
              <mxPoint x="246.91" y="-1600" />
              <mxPoint x="406.91" y="-1600" />
            </Array>
          </mxGeometry>
        </mxCell>
        <mxCell id="S5PP0wBCEG6PRxJ2JpYk-30" value="" style="edgeStyle=orthogonalEdgeStyle;rounded=0;orthogonalLoop=1;jettySize=auto;html=1;" edge="1" parent="1" source="S5PP0wBCEG6PRxJ2JpYk-19" target="S5PP0wBCEG6PRxJ2JpYk-29">
          <mxGeometry relative="1" as="geometry" />
        </mxCell>
        <mxCell id="S5PP0wBCEG6PRxJ2JpYk-32" value="" style="edgeStyle=orthogonalEdgeStyle;rounded=0;orthogonalLoop=1;jettySize=auto;html=1;" edge="1" parent="1" source="S5PP0wBCEG6PRxJ2JpYk-19" target="S5PP0wBCEG6PRxJ2JpYk-31">
          <mxGeometry relative="1" as="geometry" />
        </mxCell>
        <mxCell id="S5PP0wBCEG6PRxJ2JpYk-19" value="Address" style="ellipse;whiteSpace=wrap;html=1;rounded=0;" vertex="1" parent="1">
          <mxGeometry x="186.91" y="-1700" width="120" height="60" as="geometry" />
        </mxCell>
        <mxCell id="S5PP0wBCEG6PRxJ2JpYk-21" value="Building_Name" style="ellipse;whiteSpace=wrap;html=1;rounded=0;" vertex="1" parent="1">
          <mxGeometry x="76.91" y="-1560" width="120" height="60" as="geometry" />
        </mxCell>
        <mxCell id="S5PP0wBCEG6PRxJ2JpYk-23" value="Area" style="ellipse;whiteSpace=wrap;html=1;rounded=0;" vertex="1" parent="1">
          <mxGeometry x="216.91" y="-1560" width="120" height="60" as="geometry" />
        </mxCell>
        <mxCell id="S5PP0wBCEG6PRxJ2JpYk-27" value="City" style="ellipse;whiteSpace=wrap;html=1;rounded=0;" vertex="1" parent="1">
          <mxGeometry x="346.91" y="-1550" width="120" height="60" as="geometry" />
        </mxCell>
        <mxCell id="S5PP0wBCEG6PRxJ2JpYk-29" value="State" style="ellipse;whiteSpace=wrap;html=1;rounded=0;" vertex="1" parent="1">
          <mxGeometry x="486.91" y="-1550" width="120" height="60" as="geometry" />
        </mxCell>
        <mxCell id="S5PP0wBCEG6PRxJ2JpYk-31" value="PIN_Code" style="ellipse;whiteSpace=wrap;html=1;rounded=0;" vertex="1" parent="1">
          <mxGeometry x="646.91" y="-1550" width="120" height="60" as="geometry" />
        </mxCell>
        <mxCell id="S5PP0wBCEG6PRxJ2JpYk-35" value="" style="edgeStyle=orthogonalEdgeStyle;rounded=0;orthogonalLoop=1;jettySize=auto;html=1;" edge="1" parent="1" source="S5PP0wBCEG6PRxJ2JpYk-42" target="S5PP0wBCEG6PRxJ2JpYk-43">
          <mxGeometry relative="1" as="geometry" />
        </mxCell>
        <mxCell id="S5PP0wBCEG6PRxJ2JpYk-36" value="" style="edgeStyle=orthogonalEdgeStyle;rounded=0;orthogonalLoop=1;jettySize=auto;html=1;" edge="1" parent="1" source="S5PP0wBCEG6PRxJ2JpYk-42" target="S5PP0wBCEG6PRxJ2JpYk-46">
          <mxGeometry relative="1" as="geometry" />
        </mxCell>
        <mxCell id="S5PP0wBCEG6PRxJ2JpYk-37" value="" style="edgeStyle=orthogonalEdgeStyle;rounded=0;orthogonalLoop=1;jettySize=auto;html=1;" edge="1" parent="1" source="S5PP0wBCEG6PRxJ2JpYk-42" target="S5PP0wBCEG6PRxJ2JpYk-49">
          <mxGeometry relative="1" as="geometry" />
        </mxCell>
        <mxCell id="S5PP0wBCEG6PRxJ2JpYk-38" value="" style="edgeStyle=orthogonalEdgeStyle;rounded=0;orthogonalLoop=1;jettySize=auto;html=1;" edge="1" parent="1" source="S5PP0wBCEG6PRxJ2JpYk-42" target="S5PP0wBCEG6PRxJ2JpYk-50">
          <mxGeometry relative="1" as="geometry" />
        </mxCell>
        <mxCell id="S5PP0wBCEG6PRxJ2JpYk-39" value="" style="edgeStyle=orthogonalEdgeStyle;rounded=0;orthogonalLoop=1;jettySize=auto;html=1;" edge="1" parent="1" source="S5PP0wBCEG6PRxJ2JpYk-42" target="S5PP0wBCEG6PRxJ2JpYk-51">
          <mxGeometry relative="1" as="geometry">
            <Array as="points">
              <mxPoint x="466.91" y="-1250" />
              <mxPoint x="466.91" y="-1120" />
            </Array>
          </mxGeometry>
        </mxCell>
        <mxCell id="S5PP0wBCEG6PRxJ2JpYk-40" value="" style="edgeStyle=orthogonalEdgeStyle;rounded=0;orthogonalLoop=1;jettySize=auto;html=1;" edge="1" parent="1" source="S5PP0wBCEG6PRxJ2JpYk-42" target="S5PP0wBCEG6PRxJ2JpYk-52">
          <mxGeometry relative="1" as="geometry">
            <Array as="points">
              <mxPoint x="466.91" y="-1250" />
              <mxPoint x="466.91" y="-1370" />
            </Array>
          </mxGeometry>
        </mxCell>
        <mxCell id="S5PP0wBCEG6PRxJ2JpYk-41" value="" style="edgeStyle=orthogonalEdgeStyle;rounded=0;orthogonalLoop=1;jettySize=auto;html=1;" edge="1" parent="1" source="S5PP0wBCEG6PRxJ2JpYk-42" target="S5PP0wBCEG6PRxJ2JpYk-59">
          <mxGeometry relative="1" as="geometry">
            <Array as="points">
              <mxPoint x="280" y="-1250" />
              <mxPoint x="280" y="-1180" />
              <mxPoint x="60" y="-1180" />
              <mxPoint x="60" y="-960" />
            </Array>
          </mxGeometry>
        </mxCell>
        <mxCell id="S5PP0wBCEG6PRxJ2JpYk-80" value="" style="edgeStyle=orthogonalEdgeStyle;rounded=0;orthogonalLoop=1;jettySize=auto;html=1;" edge="1" parent="1" source="S5PP0wBCEG6PRxJ2JpYk-42" target="S5PP0wBCEG6PRxJ2JpYk-79">
          <mxGeometry relative="1" as="geometry">
            <Array as="points">
              <mxPoint x="260" y="-1250" />
              <mxPoint x="260" y="-1210" />
              <mxPoint x="50" y="-1210" />
            </Array>
          </mxGeometry>
        </mxCell>
        <mxCell id="S5PP0wBCEG6PRxJ2JpYk-42" value="Mentor" style="rounded=0;whiteSpace=wrap;html=1;direction=west;" vertex="1" parent="1">
          <mxGeometry x="311.91" y="-1280" width="120" height="60" as="geometry" />
        </mxCell>
        <mxCell id="S5PP0wBCEG6PRxJ2JpYk-43" value="&lt;u&gt;Id&lt;/u&gt;" style="ellipse;whiteSpace=wrap;html=1;rounded=0;" vertex="1" parent="1">
          <mxGeometry x="106.91" y="-1280" width="120" height="60" as="geometry" />
        </mxCell>
        <mxCell id="S5PP0wBCEG6PRxJ2JpYk-44" value="" style="edgeStyle=orthogonalEdgeStyle;rounded=0;orthogonalLoop=1;jettySize=auto;html=1;" edge="1" parent="1" source="S5PP0wBCEG6PRxJ2JpYk-46" target="S5PP0wBCEG6PRxJ2JpYk-47">
          <mxGeometry relative="1" as="geometry" />
        </mxCell>
        <mxCell id="S5PP0wBCEG6PRxJ2JpYk-45" value="" style="edgeStyle=orthogonalEdgeStyle;rounded=0;orthogonalLoop=1;jettySize=auto;html=1;" edge="1" parent="1" source="S5PP0wBCEG6PRxJ2JpYk-46" target="S5PP0wBCEG6PRxJ2JpYk-48">
          <mxGeometry relative="1" as="geometry" />
        </mxCell>
        <mxCell id="S5PP0wBCEG6PRxJ2JpYk-46" value="Name" style="ellipse;whiteSpace=wrap;html=1;rounded=0;" vertex="1" parent="1">
          <mxGeometry x="314.41" y="-1150" width="115" height="60" as="geometry" />
        </mxCell>
        <mxCell id="S5PP0wBCEG6PRxJ2JpYk-47" value="First_Name" style="ellipse;whiteSpace=wrap;html=1;rounded=0;" vertex="1" parent="1">
          <mxGeometry x="119.41" y="-1150" width="120" height="60" as="geometry" />
        </mxCell>
        <mxCell id="S5PP0wBCEG6PRxJ2JpYk-48" value="Last_Name" style="ellipse;whiteSpace=wrap;html=1;rounded=0;" vertex="1" parent="1">
          <mxGeometry x="316.91" y="-1060" width="115" height="60" as="geometry" />
        </mxCell>
        <mxCell id="S5PP0wBCEG6PRxJ2JpYk-49" value="DOB" style="ellipse;whiteSpace=wrap;html=1;rounded=0;" vertex="1" parent="1">
          <mxGeometry x="311.91" y="-1390" width="120" height="60" as="geometry" />
        </mxCell>
        <mxCell id="S5PP0wBCEG6PRxJ2JpYk-50" value="Age" style="ellipse;whiteSpace=wrap;html=1;rounded=0;" vertex="1" parent="1">
          <mxGeometry x="511.9100000000001" y="-1280" width="120" height="60" as="geometry" />
        </mxCell>
        <mxCell id="S5PP0wBCEG6PRxJ2JpYk-51" value="Email" style="ellipse;whiteSpace=wrap;html=1;rounded=0;" vertex="1" parent="1">
          <mxGeometry x="511.9100000000001" y="-1150" width="120" height="60" as="geometry" />
        </mxCell>
        <mxCell id="S5PP0wBCEG6PRxJ2JpYk-52" value="Phone" style="ellipse;whiteSpace=wrap;html=1;rounded=0;" vertex="1" parent="1">
          <mxGeometry x="496.91" y="-1400" width="120" height="60" as="geometry" />
        </mxCell>
        <mxCell id="S5PP0wBCEG6PRxJ2JpYk-53" value="" style="edgeStyle=orthogonalEdgeStyle;rounded=0;orthogonalLoop=1;jettySize=auto;html=1;" edge="1" parent="1" source="S5PP0wBCEG6PRxJ2JpYk-59" target="S5PP0wBCEG6PRxJ2JpYk-60">
          <mxGeometry relative="1" as="geometry" />
        </mxCell>
        <mxCell id="S5PP0wBCEG6PRxJ2JpYk-54" value="" style="edgeStyle=orthogonalEdgeStyle;rounded=0;orthogonalLoop=1;jettySize=auto;html=1;" edge="1" parent="1" source="S5PP0wBCEG6PRxJ2JpYk-59" target="S5PP0wBCEG6PRxJ2JpYk-61">
          <mxGeometry relative="1" as="geometry" />
        </mxCell>
        <mxCell id="S5PP0wBCEG6PRxJ2JpYk-55" value="" style="edgeStyle=orthogonalEdgeStyle;rounded=0;orthogonalLoop=1;jettySize=auto;html=1;" edge="1" parent="1" source="S5PP0wBCEG6PRxJ2JpYk-59" target="S5PP0wBCEG6PRxJ2JpYk-61">
          <mxGeometry relative="1" as="geometry" />
        </mxCell>
        <mxCell id="S5PP0wBCEG6PRxJ2JpYk-56" value="" style="edgeStyle=orthogonalEdgeStyle;rounded=0;orthogonalLoop=1;jettySize=auto;html=1;" edge="1" parent="1" source="S5PP0wBCEG6PRxJ2JpYk-59" target="S5PP0wBCEG6PRxJ2JpYk-62">
          <mxGeometry relative="1" as="geometry">
            <Array as="points">
              <mxPoint x="246.90999999999997" y="-890" />
              <mxPoint x="406.91" y="-890" />
            </Array>
          </mxGeometry>
        </mxCell>
        <mxCell id="S5PP0wBCEG6PRxJ2JpYk-57" value="" style="edgeStyle=orthogonalEdgeStyle;rounded=0;orthogonalLoop=1;jettySize=auto;html=1;" edge="1" parent="1" source="S5PP0wBCEG6PRxJ2JpYk-59" target="S5PP0wBCEG6PRxJ2JpYk-63">
          <mxGeometry relative="1" as="geometry" />
        </mxCell>
        <mxCell id="S5PP0wBCEG6PRxJ2JpYk-58" value="" style="edgeStyle=orthogonalEdgeStyle;rounded=0;orthogonalLoop=1;jettySize=auto;html=1;" edge="1" parent="1" source="S5PP0wBCEG6PRxJ2JpYk-59" target="S5PP0wBCEG6PRxJ2JpYk-64">
          <mxGeometry relative="1" as="geometry" />
        </mxCell>
        <mxCell id="S5PP0wBCEG6PRxJ2JpYk-59" value="Address" style="ellipse;whiteSpace=wrap;html=1;rounded=0;" vertex="1" parent="1">
          <mxGeometry x="186.91" y="-990" width="120" height="60" as="geometry" />
        </mxCell>
        <mxCell id="S5PP0wBCEG6PRxJ2JpYk-60" value="Building_Name" style="ellipse;whiteSpace=wrap;html=1;rounded=0;" vertex="1" parent="1">
          <mxGeometry x="76.91" y="-850" width="120" height="60" as="geometry" />
        </mxCell>
        <mxCell id="S5PP0wBCEG6PRxJ2JpYk-61" value="Area" style="ellipse;whiteSpace=wrap;html=1;rounded=0;" vertex="1" parent="1">
          <mxGeometry x="216.91" y="-850" width="120" height="60" as="geometry" />
        </mxCell>
        <mxCell id="S5PP0wBCEG6PRxJ2JpYk-62" value="City" style="ellipse;whiteSpace=wrap;html=1;rounded=0;" vertex="1" parent="1">
          <mxGeometry x="346.91" y="-840" width="120" height="60" as="geometry" />
        </mxCell>
        <mxCell id="S5PP0wBCEG6PRxJ2JpYk-63" value="State" style="ellipse;whiteSpace=wrap;html=1;rounded=0;" vertex="1" parent="1">
          <mxGeometry x="486.91" y="-840" width="120" height="60" as="geometry" />
        </mxCell>
        <mxCell id="S5PP0wBCEG6PRxJ2JpYk-64" value="PIN_Code" style="ellipse;whiteSpace=wrap;html=1;rounded=0;" vertex="1" parent="1">
          <mxGeometry x="646.91" y="-840" width="120" height="60" as="geometry" />
        </mxCell>
        <mxCell id="S5PP0wBCEG6PRxJ2JpYk-67" value="" style="edgeStyle=orthogonalEdgeStyle;rounded=0;orthogonalLoop=1;jettySize=auto;html=1;" edge="1" parent="1" source="S5PP0wBCEG6PRxJ2JpYk-65" target="S5PP0wBCEG6PRxJ2JpYk-66">
          <mxGeometry relative="1" as="geometry" />
        </mxCell>
        <mxCell id="S5PP0wBCEG6PRxJ2JpYk-71" value="" style="edgeStyle=orthogonalEdgeStyle;rounded=0;orthogonalLoop=1;jettySize=auto;html=1;" edge="1" parent="1" source="S5PP0wBCEG6PRxJ2JpYk-65" target="S5PP0wBCEG6PRxJ2JpYk-70">
          <mxGeometry relative="1" as="geometry" />
        </mxCell>
        <mxCell id="S5PP0wBCEG6PRxJ2JpYk-73" value="" style="edgeStyle=orthogonalEdgeStyle;rounded=0;orthogonalLoop=1;jettySize=auto;html=1;" edge="1" parent="1" source="S5PP0wBCEG6PRxJ2JpYk-65" target="S5PP0wBCEG6PRxJ2JpYk-72">
          <mxGeometry relative="1" as="geometry" />
        </mxCell>
        <mxCell id="S5PP0wBCEG6PRxJ2JpYk-75" value="" style="edgeStyle=orthogonalEdgeStyle;rounded=0;orthogonalLoop=1;jettySize=auto;html=1;" edge="1" parent="1" source="S5PP0wBCEG6PRxJ2JpYk-65" target="S5PP0wBCEG6PRxJ2JpYk-74">
          <mxGeometry relative="1" as="geometry" />
        </mxCell>
        <mxCell id="S5PP0wBCEG6PRxJ2JpYk-76" value="" style="edgeStyle=orthogonalEdgeStyle;rounded=0;orthogonalLoop=1;jettySize=auto;html=1;" edge="1" parent="1" source="S5PP0wBCEG6PRxJ2JpYk-65" target="S5PP0wBCEG6PRxJ2JpYk-74">
          <mxGeometry relative="1" as="geometry" />
        </mxCell>
        <mxCell id="S5PP0wBCEG6PRxJ2JpYk-78" value="" style="edgeStyle=orthogonalEdgeStyle;rounded=0;orthogonalLoop=1;jettySize=auto;html=1;" edge="1" parent="1" source="S5PP0wBCEG6PRxJ2JpYk-65" target="S5PP0wBCEG6PRxJ2JpYk-77">
          <mxGeometry relative="1" as="geometry">
            <Array as="points">
              <mxPoint x="530" y="-400" />
              <mxPoint x="530" y="-280" />
            </Array>
          </mxGeometry>
        </mxCell>
        <mxCell id="S5PP0wBCEG6PRxJ2JpYk-84" value="" style="edgeStyle=orthogonalEdgeStyle;rounded=0;orthogonalLoop=1;jettySize=auto;html=1;" edge="1" parent="1" source="S5PP0wBCEG6PRxJ2JpYk-65" target="S5PP0wBCEG6PRxJ2JpYk-83">
          <mxGeometry relative="1" as="geometry">
            <Array as="points">
              <mxPoint x="425" y="-480" />
              <mxPoint x="790" y="-480" />
            </Array>
          </mxGeometry>
        </mxCell>
        <mxCell id="S5PP0wBCEG6PRxJ2JpYk-65" value="Batch" style="rounded=0;whiteSpace=wrap;html=1;" vertex="1" parent="1">
          <mxGeometry x="364.99999999999994" y="-430" width="120" height="60" as="geometry" />
        </mxCell>
        <mxCell id="S5PP0wBCEG6PRxJ2JpYk-66" value="&lt;u&gt;Id&lt;/u&gt;" style="ellipse;whiteSpace=wrap;html=1;rounded=0;" vertex="1" parent="1">
          <mxGeometry x="149.99999999999994" y="-430" width="120" height="60" as="geometry" />
        </mxCell>
        <mxCell id="S5PP0wBCEG6PRxJ2JpYk-70" value="Name" style="ellipse;whiteSpace=wrap;html=1;rounded=0;" vertex="1" parent="1">
          <mxGeometry x="364.99999999999994" y="-290" width="120" height="60" as="geometry" />
        </mxCell>
        <mxCell id="S5PP0wBCEG6PRxJ2JpYk-72" value="Timing" style="ellipse;whiteSpace=wrap;html=1;rounded=0;" vertex="1" parent="1">
          <mxGeometry x="565" y="-430" width="120" height="60" as="geometry" />
        </mxCell>
        <mxCell id="S5PP0wBCEG6PRxJ2JpYk-74" value="Start_Date" style="ellipse;whiteSpace=wrap;html=1;rounded=0;" vertex="1" parent="1">
          <mxGeometry x="364.99999999999994" y="-570" width="120" height="60" as="geometry" />
        </mxCell>
        <mxCell id="S5PP0wBCEG6PRxJ2JpYk-77" value="Type" style="ellipse;whiteSpace=wrap;html=1;rounded=0;" vertex="1" parent="1">
          <mxGeometry x="580" y="-310" width="120" height="60" as="geometry" />
        </mxCell>
        <mxCell id="S5PP0wBCEG6PRxJ2JpYk-82" style="edgeStyle=orthogonalEdgeStyle;rounded=0;orthogonalLoop=1;jettySize=auto;html=1;exitX=1;exitY=1;exitDx=0;exitDy=0;entryX=0;entryY=0;entryDx=0;entryDy=0;" edge="1" parent="1" source="S5PP0wBCEG6PRxJ2JpYk-79" target="S5PP0wBCEG6PRxJ2JpYk-65">
          <mxGeometry relative="1" as="geometry">
            <mxPoint x="240" y="-580" as="targetPoint" />
            <Array as="points">
              <mxPoint x="300" y="-640" />
              <mxPoint x="300" y="-430" />
            </Array>
          </mxGeometry>
        </mxCell>
        <mxCell id="S5PP0wBCEG6PRxJ2JpYk-79" value="Mentor" style="rhombus;whiteSpace=wrap;html=1;rounded=0;" vertex="1" parent="1">
          <mxGeometry x="119.41" y="-700" width="100.59" height="80" as="geometry" />
        </mxCell>
        <mxCell id="S5PP0wBCEG6PRxJ2JpYk-85" style="edgeStyle=orthogonalEdgeStyle;rounded=0;orthogonalLoop=1;jettySize=auto;html=1;exitX=0;exitY=0;exitDx=0;exitDy=0;entryX=0;entryY=0;entryDx=0;entryDy=0;" edge="1" parent="1" source="S5PP0wBCEG6PRxJ2JpYk-83" target="S5PP0wBCEG6PRxJ2JpYk-1">
          <mxGeometry relative="1" as="geometry">
            <Array as="points">
              <mxPoint x="450" y="-1742" />
              <mxPoint x="450" y="-1930" />
            </Array>
          </mxGeometry>
        </mxCell>
        <mxCell id="S5PP0wBCEG6PRxJ2JpYk-83" value="Class" style="rhombus;whiteSpace=wrap;html=1;rounded=0;" vertex="1" parent="1">
          <mxGeometry x="750" y="-1760" width="80" height="70" as="geometry" />
        </mxCell>
      </root>
    </mxGraphModel>
  </diagram>
</mxfile>
